<mxfile host="app.diagrams.net" agent="Mozilla/5.0 (Windows NT 10.0; Win64; x64) AppleWebKit/537.36 (KHTML, like Gecko) Chrome/138.0.0.0 Safari/537.36" version="28.0.5">
  <diagram name="Page-1" id="LvTZlZ-7pkBXrGeCJgD9">
    <mxGraphModel dx="983" dy="512" grid="1" gridSize="10" guides="1" tooltips="1" connect="1" arrows="1" fold="1" page="1" pageScale="1" pageWidth="850" pageHeight="1100" math="0" shadow="0">
      <root>
        <mxCell id="0" />
        <mxCell id="1" parent="0" />
        <mxCell id="-1n_QZb-apPPQHkR6gH0-4" value="" style="edgeStyle=orthogonalEdgeStyle;rounded=0;orthogonalLoop=1;jettySize=auto;html=1;" edge="1" parent="1" source="-1n_QZb-apPPQHkR6gH0-1" target="-1n_QZb-apPPQHkR6gH0-3">
          <mxGeometry relative="1" as="geometry" />
        </mxCell>
        <mxCell id="-1n_QZb-apPPQHkR6gH0-1" value="input tensor" style="rounded=0;whiteSpace=wrap;html=1;" vertex="1" parent="1">
          <mxGeometry x="150" y="70" width="100" height="40" as="geometry" />
        </mxCell>
        <mxCell id="-1n_QZb-apPPQHkR6gH0-6" value="" style="edgeStyle=orthogonalEdgeStyle;rounded=0;orthogonalLoop=1;jettySize=auto;html=1;" edge="1" parent="1" source="-1n_QZb-apPPQHkR6gH0-3" target="-1n_QZb-apPPQHkR6gH0-5">
          <mxGeometry relative="1" as="geometry" />
        </mxCell>
        <mxCell id="-1n_QZb-apPPQHkR6gH0-3" value="Attn (TP)" style="rounded=1;whiteSpace=wrap;html=1;fillColor=#dae8fc;strokeColor=#6c8ebf;" vertex="1" parent="1">
          <mxGeometry x="150" y="140" width="100" height="40" as="geometry" />
        </mxCell>
        <mxCell id="-1n_QZb-apPPQHkR6gH0-8" value="" style="edgeStyle=orthogonalEdgeStyle;rounded=0;orthogonalLoop=1;jettySize=auto;html=1;" edge="1" parent="1" source="-1n_QZb-apPPQHkR6gH0-5" target="-1n_QZb-apPPQHkR6gH0-7">
          <mxGeometry relative="1" as="geometry" />
        </mxCell>
        <mxCell id="-1n_QZb-apPPQHkR6gH0-5" value="all reduce (TP)" style="rounded=0;whiteSpace=wrap;html=1;fillColor=#d5e8d4;strokeColor=#82b366;" vertex="1" parent="1">
          <mxGeometry x="140" y="210" width="120" height="40" as="geometry" />
        </mxCell>
        <mxCell id="-1n_QZb-apPPQHkR6gH0-10" value="" style="edgeStyle=orthogonalEdgeStyle;rounded=0;orthogonalLoop=1;jettySize=auto;html=1;" edge="1" parent="1" source="-1n_QZb-apPPQHkR6gH0-7" target="-1n_QZb-apPPQHkR6gH0-9">
          <mxGeometry relative="1" as="geometry" />
        </mxCell>
        <mxCell id="-1n_QZb-apPPQHkR6gH0-7" value="MoE (EP)" style="rounded=1;whiteSpace=wrap;html=1;fillColor=#dae8fc;strokeColor=#6c8ebf;" vertex="1" parent="1">
          <mxGeometry x="140" y="280" width="120" height="40" as="geometry" />
        </mxCell>
        <mxCell id="-1n_QZb-apPPQHkR6gH0-9" value="all reduce (TP/EP)" style="rounded=0;whiteSpace=wrap;html=1;fillColor=#d5e8d4;strokeColor=#82b366;" vertex="1" parent="1">
          <mxGeometry x="140" y="350" width="120" height="40" as="geometry" />
        </mxCell>
        <mxCell id="-1n_QZb-apPPQHkR6gH0-11" value="TP+EP" style="text;html=1;align=center;verticalAlign=middle;whiteSpace=wrap;rounded=0;" vertex="1" parent="1">
          <mxGeometry x="140" y="40" width="60" height="30" as="geometry" />
        </mxCell>
        <mxCell id="-1n_QZb-apPPQHkR6gH0-12" value="EP = TP * DP" style="text;html=1;align=center;verticalAlign=middle;whiteSpace=wrap;rounded=0;" vertex="1" parent="1">
          <mxGeometry x="30" y="10" width="90" height="30" as="geometry" />
        </mxCell>
        <mxCell id="-1n_QZb-apPPQHkR6gH0-14" value="TP+DP+EP: naive" style="text;html=1;align=center;verticalAlign=middle;whiteSpace=wrap;rounded=0;" vertex="1" parent="1">
          <mxGeometry x="420" y="40" width="60" height="30" as="geometry" />
        </mxCell>
        <mxCell id="-1n_QZb-apPPQHkR6gH0-15" value="" style="edgeStyle=orthogonalEdgeStyle;rounded=0;orthogonalLoop=1;jettySize=auto;html=1;" edge="1" parent="1" source="-1n_QZb-apPPQHkR6gH0-16" target="-1n_QZb-apPPQHkR6gH0-18">
          <mxGeometry relative="1" as="geometry" />
        </mxCell>
        <mxCell id="-1n_QZb-apPPQHkR6gH0-16" value="input tensor" style="rounded=0;whiteSpace=wrap;html=1;" vertex="1" parent="1">
          <mxGeometry x="500" y="70" width="100" height="40" as="geometry" />
        </mxCell>
        <mxCell id="-1n_QZb-apPPQHkR6gH0-17" value="" style="edgeStyle=orthogonalEdgeStyle;rounded=0;orthogonalLoop=1;jettySize=auto;html=1;" edge="1" parent="1" source="-1n_QZb-apPPQHkR6gH0-18" target="-1n_QZb-apPPQHkR6gH0-20">
          <mxGeometry relative="1" as="geometry" />
        </mxCell>
        <mxCell id="-1n_QZb-apPPQHkR6gH0-18" value="Attn (TP)" style="rounded=1;whiteSpace=wrap;html=1;fillColor=#dae8fc;strokeColor=#6c8ebf;" vertex="1" parent="1">
          <mxGeometry x="500" y="140" width="100" height="40" as="geometry" />
        </mxCell>
        <mxCell id="-1n_QZb-apPPQHkR6gH0-26" value="" style="edgeStyle=orthogonalEdgeStyle;rounded=0;orthogonalLoop=1;jettySize=auto;html=1;" edge="1" parent="1" source="-1n_QZb-apPPQHkR6gH0-20" target="-1n_QZb-apPPQHkR6gH0-24">
          <mxGeometry relative="1" as="geometry" />
        </mxCell>
        <mxCell id="-1n_QZb-apPPQHkR6gH0-20" value="all reduce (TP)" style="rounded=0;whiteSpace=wrap;html=1;fillColor=#d5e8d4;strokeColor=#82b366;" vertex="1" parent="1">
          <mxGeometry x="490" y="210" width="120" height="40" as="geometry" />
        </mxCell>
        <mxCell id="-1n_QZb-apPPQHkR6gH0-21" value="" style="edgeStyle=orthogonalEdgeStyle;rounded=0;orthogonalLoop=1;jettySize=auto;html=1;" edge="1" parent="1" source="-1n_QZb-apPPQHkR6gH0-22" target="-1n_QZb-apPPQHkR6gH0-23">
          <mxGeometry relative="1" as="geometry" />
        </mxCell>
        <mxCell id="-1n_QZb-apPPQHkR6gH0-27" value="" style="edgeStyle=orthogonalEdgeStyle;rounded=0;orthogonalLoop=1;jettySize=auto;html=1;" edge="1" parent="1" source="-1n_QZb-apPPQHkR6gH0-22" target="-1n_QZb-apPPQHkR6gH0-23">
          <mxGeometry relative="1" as="geometry" />
        </mxCell>
        <mxCell id="-1n_QZb-apPPQHkR6gH0-22" value="MoE (EP)" style="rounded=1;whiteSpace=wrap;html=1;fillColor=#dae8fc;strokeColor=#6c8ebf;" vertex="1" parent="1">
          <mxGeometry x="490" y="340" width="120" height="40" as="geometry" />
        </mxCell>
        <mxCell id="-1n_QZb-apPPQHkR6gH0-35" value="" style="edgeStyle=orthogonalEdgeStyle;rounded=0;orthogonalLoop=1;jettySize=auto;html=1;" edge="1" parent="1" source="-1n_QZb-apPPQHkR6gH0-23" target="-1n_QZb-apPPQHkR6gH0-34">
          <mxGeometry relative="1" as="geometry" />
        </mxCell>
        <mxCell id="-1n_QZb-apPPQHkR6gH0-23" value="combine (DP ReduceScatter)" style="rounded=0;whiteSpace=wrap;html=1;fillColor=#d5e8d4;strokeColor=#82b366;" vertex="1" parent="1">
          <mxGeometry x="472.5" y="410" width="157.5" height="40" as="geometry" />
        </mxCell>
        <mxCell id="-1n_QZb-apPPQHkR6gH0-33" value="" style="edgeStyle=orthogonalEdgeStyle;rounded=0;orthogonalLoop=1;jettySize=auto;html=1;" edge="1" parent="1" source="-1n_QZb-apPPQHkR6gH0-24" target="-1n_QZb-apPPQHkR6gH0-22">
          <mxGeometry relative="1" as="geometry" />
        </mxCell>
        <mxCell id="-1n_QZb-apPPQHkR6gH0-24" value="dispatch (DP AllGather)" style="rounded=0;whiteSpace=wrap;html=1;fillColor=#d5e8d4;strokeColor=#82b366;" vertex="1" parent="1">
          <mxGeometry x="472.5" y="280" width="155" height="40" as="geometry" />
        </mxCell>
        <mxCell id="-1n_QZb-apPPQHkR6gH0-34" value="all reduce (TP)" style="rounded=0;whiteSpace=wrap;html=1;fillColor=#d5e8d4;strokeColor=#82b366;" vertex="1" parent="1">
          <mxGeometry x="490" y="480" width="120" height="40" as="geometry" />
        </mxCell>
        <mxCell id="-1n_QZb-apPPQHkR6gH0-36" value="TP+DP+DeepEP" style="text;html=1;align=center;verticalAlign=middle;whiteSpace=wrap;rounded=0;" vertex="1" parent="1">
          <mxGeometry x="700" y="40" width="90" height="30" as="geometry" />
        </mxCell>
      </root>
    </mxGraphModel>
  </diagram>
</mxfile>
